<svg xmlns="http://www.w3.org/2000/svg" viewBox="0 0 1100 700" width="1100" height="700" font-family="Segoe UI, Arial, sans-serif">

  <!-- BACKGROUND -->
  <rect width="1100" height="700" fill="#0d1117" rx="14"/>
  <line x1="40" y1="62" x2="1060" y2="62" stroke="#21262d" stroke-width="1"/>

  <!-- TITLE -->
  <text x="550" y="30" text-anchor="middle" fill="#e6edf3" font-size="13" font-weight="bold" letter-spacing="2">AUTOMOTIVE SYSTEMS ENGINEERING  ·  V-MODEL AUTOMATION MAP</text>
  <text x="550" y="50" text-anchor="middle" fill="#484f58" font-size="9" letter-spacing="1.5">WHERE MY TOOLS INTERVENE IN THE ENGINEERING PROCESS</text>

  <!-- ═══════════════════════════════
       V-MODEL ARM LINES
  ═══════════════════════════════ -->
  <!-- Left arm thick background -->
  <polyline points="120,118  270,208  420,298  570,388"
            fill="none" stroke="#30363d" stroke-width="16" stroke-linecap="round" stroke-linejoin="round"/>
  <!-- Left arm colored dash -->
  <polyline points="120,118  270,208  420,298  570,388"
            fill="none" stroke="#1f6feb" stroke-width="2" stroke-dasharray="6,4" opacity="0.6"/>

  <!-- Right arm thick background -->
  <polyline points="570,388  720,298  870,208  980,118"
            fill="none" stroke="#30363d" stroke-width="16" stroke-linecap="round" stroke-linejoin="round"/>
  <!-- Right arm colored dash -->
  <polyline points="570,388  720,298  870,208  980,118"
            fill="none" stroke="#238636" stroke-width="2" stroke-dasharray="6,4" opacity="0.6"/>

  <!-- Horizontal correspondence dotted lines -->
  <line x1="270" y1="208" x2="870" y2="208" stroke="#1e2832" stroke-width="1" stroke-dasharray="3,7"/>
  <line x1="420" y1="298" x2="720" y2="298" stroke="#1e2832" stroke-width="1" stroke-dasharray="3,7"/>

  <!-- ═══════════════════════════════
       PHASE BRACKET — LEFT (Bosch)
  ═══════════════════════════════ -->
  <line x1="36" y1="78" x2="36" y2="420" stroke="#1f6feb" stroke-width="1.8"/>
  <line x1="36" y1="78" x2="52" y2="78" stroke="#1f6feb" stroke-width="1.8"/>
  <line x1="36" y1="420" x2="52" y2="420" stroke="#1f6feb" stroke-width="1.8"/>
  <text x="32" y="260" text-anchor="middle" fill="#1f6feb" font-size="9" font-weight="bold"
        transform="rotate(-90, 32, 260)">PHASE 2  ·  BOSCH  ·  2023–PRESENT</text>

  <!-- ═══════════════════════════════
       PHASE BRACKET — RIGHT (ZF Rane)
  ═══════════════════════════════ -->
  <line x1="1064" y1="78" x2="1064" y2="420" stroke="#238636" stroke-width="1.8"/>
  <line x1="1048" y1="78" x2="1064" y2="78" stroke="#238636" stroke-width="1.8"/>
  <line x1="1048" y1="420" x2="1064" y2="420" stroke="#238636" stroke-width="1.8"/>
  <text x="1068" y="260" text-anchor="middle" fill="#238636" font-size="9" font-weight="bold"
        transform="rotate(90, 1068, 260)">PHASE 1  ·  ZF RANE  ·  2019–2023</text>

  <!-- ═══════════════════════════════
       V-MODEL STAGE NODES
  ═══════════════════════════════ -->

  <!-- L1 · Customer / Stakeholder Requirements -->
  <rect x="50" y="90" width="142" height="56" rx="8" fill="#1c2e4a" stroke="#1f6feb" stroke-width="2"/>
  <text x="121" y="113" text-anchor="middle" fill="#93c5fd" font-size="9.5" font-weight="bold">Customer /</text>
  <text x="121" y="128" text-anchor="middle" fill="#93c5fd" font-size="9.5" font-weight="bold">Stakeholder Req.</text>
  <circle cx="120" cy="118" r="5.5" fill="#1f6feb" stroke="#0d1117" stroke-width="2"/>

  <!-- L2 · System Requirements -->
  <rect x="200" y="180" width="142" height="56" rx="8" fill="#1c2e4a" stroke="#1f6feb" stroke-width="2"/>
  <text x="271" y="203" text-anchor="middle" fill="#93c5fd" font-size="9.5" font-weight="bold">System</text>
  <text x="271" y="218" text-anchor="middle" fill="#93c5fd" font-size="9.5" font-weight="bold">Requirements</text>
  <circle cx="270" cy="208" r="5.5" fill="#1f6feb" stroke="#0d1117" stroke-width="2"/>

  <!-- L3 · System Architecture -->
  <rect x="350" y="270" width="142" height="56" rx="8" fill="#1c2e4a" stroke="#334155" stroke-width="1.5"/>
  <text x="421" y="293" text-anchor="middle" fill="#94a3b8" font-size="9.5" font-weight="bold">System</text>
  <text x="421" y="308" text-anchor="middle" fill="#94a3b8" font-size="9.5">Architecture</text>
  <circle cx="420" cy="298" r="5.5" fill="#334155" stroke="#0d1117" stroke-width="2"/>

  <!-- L4 · Bottom of V -->
  <rect x="500" y="360" width="142" height="56" rx="8" fill="#161b22" stroke="#21262d" stroke-width="1.5"/>
  <text x="571" y="383" text-anchor="middle" fill="#4e5965" font-size="9.5" font-weight="bold">Implementation</text>
  <text x="571" y="398" text-anchor="middle" fill="#4e5965" font-size="9">/ Coding &amp; Build</text>
  <circle cx="570" cy="388" r="6.5" fill="#1e2832" stroke="#30363d" stroke-width="2"/>

  <!-- R3 · Integration Test -->
  <rect x="650" y="270" width="142" height="56" rx="8" fill="#1c2e4a" stroke="#334155" stroke-width="1.5"/>
  <text x="721" y="293" text-anchor="middle" fill="#94a3b8" font-size="9.5" font-weight="bold">Integration</text>
  <text x="721" y="308" text-anchor="middle" fill="#94a3b8" font-size="9">Test Planning</text>
  <circle cx="720" cy="298" r="5.5" fill="#334155" stroke="#0d1117" stroke-width="2"/>

  <!-- R2 · Validation Testing -->
  <rect x="800" y="180" width="142" height="56" rx="8" fill="#0d2518" stroke="#238636" stroke-width="2"/>
  <text x="871" y="203" text-anchor="middle" fill="#7ee787" font-size="9.5" font-weight="bold">Validation &amp;</text>
  <text x="871" y="218" text-anchor="middle" fill="#7ee787" font-size="9.5">System Testing</text>
  <circle cx="870" cy="208" r="5.5" fill="#238636" stroke="#0d1117" stroke-width="2"/>

  <!-- R1 · Product Release -->
  <rect x="910" y="90" width="142" height="56" rx="8" fill="#1c2e4a" stroke="#1f6feb" stroke-width="2"/>
  <text x="981" y="113" text-anchor="middle" fill="#93c5fd" font-size="9.5" font-weight="bold">Acceptance &amp;</text>
  <text x="981" y="128" text-anchor="middle" fill="#93c5fd" font-size="9.5">Product Release</text>
  <circle cx="980" cy="118" r="5.5" fill="#1f6feb" stroke="#0d1117" stroke-width="2"/>

  <!-- ═══════════════════════════════
       STEP NUMBER BADGES on arm
  ═══════════════════════════════ -->
  <!-- Step 1: on arm between L1 and L2, midpoint ≈ (195, 163) -->
  <circle cx="192" cy="162" r="9" fill="#1f6feb"/>
  <text x="192" y="166" text-anchor="middle" fill="#fff" font-size="9" font-weight="bold">1</text>

  <!-- Step 2: just above L2 node -->
  <circle cx="248" cy="190" r="9" fill="#1f6feb"/>
  <text x="248" y="194" text-anchor="middle" fill="#fff" font-size="9" font-weight="bold">2</text>

  <!-- Step 3: just below L2 node, between L2 and L3 -->
  <circle cx="295" cy="253" r="9" fill="#1f6feb"/>
  <text x="295" y="257" text-anchor="middle" fill="#fff" font-size="9" font-weight="bold">3</text>

  <!-- Step 4: on arm between L2 and L3, closer to L3 -->
  <circle cx="345" cy="253" r="9" fill="#1f6feb" opacity="0"/><!-- invisible spacer -->
  <!-- Step 4 actually sits above L2, because review happens after sys req writing -->
  <circle cx="220" cy="172" r="9" fill="#1f6feb" opacity="0"/>
  <!-- Reposition step 4 cleanly on arm above L3 -->
  <circle cx="370" cy="278" r="9" fill="#1f6feb"/>
  <text x="370" y="282" text-anchor="middle" fill="#fff" font-size="9" font-weight="bold">4</text>

  <!-- Step 5: on right arm near R2 -->
  <circle cx="920" cy="162" r="9" fill="#238636"/>
  <text x="920" y="166" text-anchor="middle" fill="#fff" font-size="9" font-weight="bold">5</text>

  <!-- ═══════════════════════════════
       DIVIDER
  ═══════════════════════════════ -->
  <line x1="40" y1="448" x2="1060" y2="448" stroke="#21262d" stroke-width="1"/>
  <text x="550" y="466" text-anchor="middle" fill="#30363d" font-size="9" letter-spacing="2">MY AUTOMATION TOOLS  ·  EACH MAPPED TO ITS STAGE ABOVE</text>

  <!-- ═══════════════════════════════
       DROP LINES  node → card
       Card centers: 118, 288, 458, 628, 898
  ═══════════════════════════════ -->
  <line x1="118" y1="448" x2="118" y2="478" stroke="#f59e0b" stroke-width="1.5" stroke-dasharray="4,3"/>
  <circle cx="118" cy="448" r="3.5" fill="#f59e0b"/>

  <line x1="288" y1="448" x2="288" y2="478" stroke="#8b5cf6" stroke-width="1.5" stroke-dasharray="4,3"/>
  <circle cx="288" cy="448" r="3.5" fill="#8b5cf6"/>

  <line x1="458" y1="448" x2="458" y2="478" stroke="#f87171" stroke-width="1.5" stroke-dasharray="4,3"/>
  <circle cx="458" cy="448" r="3.5" fill="#f87171"/>

  <line x1="628" y1="448" x2="628" y2="478" stroke="#34d399" stroke-width="1.5" stroke-dasharray="4,3"/>
  <circle cx="628" cy="448" r="3.5" fill="#34d399"/>

  <line x1="898" y1="448" x2="898" y2="478" stroke="#38bdf8" stroke-width="1.5" stroke-dasharray="4,3"/>
  <circle cx="898" cy="448" r="3.5" fill="#38bdf8"/>

  <!-- ═══════════════════════════════
       TOOL CARDS
       x = center - 80, width = 160
       Centers: 118, 288, 458, 628, 898
       x:        38,  208, 378, 548, 818
  ═══════════════════════════════ -->

  <!-- CARD 1 · STEP 1 · PDF→DOORS (amber) -->
  <rect x="38" y="478" width="160" height="188" rx="8" fill="#0f0d07" stroke="#f59e0b" stroke-width="1.5"/>
  <rect x="38" y="478" width="160" height="30" rx="8" fill="#78350f"/>
  <rect x="38" y="494" width="160" height="14" fill="#78350f"/>
  <text x="60" y="489" fill="#fde68a" font-size="8" font-weight="bold">STEP 1</text>
  <text x="118" y="500" text-anchor="middle" fill="#fde68a" font-size="9" font-weight="bold">📥 PDF→RTF→DOORS</text>
  <text x="52" y="524" fill="#9ca3af" font-size="7.5" font-weight="bold">STAGE</text>
  <text x="52" y="537" fill="#fcd34d" font-size="8.5">Customer Req. Import</text>
  <line x1="52" y1="543" x2="190" y2="543" stroke="#1f2937" stroke-width="0.8"/>
  <text x="52" y="557" fill="#9ca3af" font-size="7.5" font-weight="bold">PROBLEM</text>
  <text x="52" y="570" fill="#d1d5db" font-size="8">Manual PDF reformatting</text>
  <text x="52" y="582" fill="#d1d5db" font-size="8">for DOORS import</text>
  <line x1="52" y1="589" x2="190" y2="589" stroke="#1f2937" stroke-width="0.8"/>
  <text x="52" y="603" fill="#9ca3af" font-size="7.5" font-weight="bold">SAVING</text>
  <text x="52" y="617" fill="#86efac" font-size="8.5" font-weight="bold">~80% effort reduction</text>
  <text x="52" y="630" fill="#86efac" font-size="8">in doc preparation</text>
  <rect x="52" y="642" width="44" height="14" rx="3" fill="#166534"/>
  <text x="74" y="652" text-anchor="middle" fill="#86efac" font-size="7.5" font-weight="bold">✅ LIVE</text>

  <!-- CARD 2 · STEP 2 · AI Similarity (purple) -->
  <rect x="208" y="478" width="160" height="188" rx="8" fill="#0a0814" stroke="#8b5cf6" stroke-width="1.5"/>
  <rect x="208" y="478" width="160" height="30" rx="8" fill="#4c1d95"/>
  <rect x="208" y="494" width="160" height="14" fill="#4c1d95"/>
  <text x="230" y="489" fill="#ddd6fe" font-size="8" font-weight="bold">STEP 2</text>
  <text x="288" y="500" text-anchor="middle" fill="#ddd6fe" font-size="9" font-weight="bold">🔍 AI SIMILARITY CHECK</text>
  <text x="222" y="524" fill="#9ca3af" font-size="7.5" font-weight="bold">STAGE</text>
  <text x="222" y="537" fill="#c4b5fd" font-size="8.5">Req. Evaluation</text>
  <line x1="222" y1="543" x2="360" y2="543" stroke="#1f2937" stroke-width="0.8"/>
  <text x="222" y="557" fill="#9ca3af" font-size="7.5" font-weight="bold">PROBLEM</text>
  <text x="222" y="570" fill="#d1d5db" font-size="8">Manual redundancy check</text>
  <text x="222" y="582" fill="#d1d5db" font-size="8">vs 10+ legacy projects</text>
  <line x1="222" y1="589" x2="360" y2="589" stroke="#1f2937" stroke-width="0.8"/>
  <text x="222" y="603" fill="#9ca3af" font-size="7.5" font-weight="bold">SAVING</text>
  <text x="222" y="617" fill="#86efac" font-size="8.5" font-weight="bold">15 days → 5 days</text>
  <text x="222" y="630" fill="#86efac" font-size="8">65% lead time cut</text>
  <rect x="222" y="642" width="44" height="14" rx="3" fill="#166534"/>
  <text x="244" y="652" text-anchor="middle" fill="#86efac" font-size="7.5" font-weight="bold">✅ LIVE</text>

  <!-- CARD 3 · STEP 3 · ML Allocator (red) -->
  <rect x="378" y="478" width="160" height="188" rx="8" fill="#100808" stroke="#f87171" stroke-width="1.5"/>
  <rect x="378" y="478" width="160" height="30" rx="8" fill="#7f1d1d"/>
  <rect x="378" y="494" width="160" height="14" fill="#7f1d1d"/>
  <text x="400" y="489" fill="#fecaca" font-size="8" font-weight="bold">STEP 3</text>
  <text x="458" y="500" text-anchor="middle" fill="#fecaca" font-size="9" font-weight="bold">⚙️ ML REQ ALLOCATOR</text>
  <text x="392" y="524" fill="#9ca3af" font-size="7.5" font-weight="bold">STAGE</text>
  <text x="392" y="537" fill="#fca5a5" font-size="8.5">Post-Evaluation Allocation</text>
  <line x1="392" y1="543" x2="530" y2="543" stroke="#1f2937" stroke-width="0.8"/>
  <text x="392" y="557" fill="#9ca3af" font-size="7.5" font-weight="bold">PROBLEM</text>
  <text x="392" y="570" fill="#d1d5db" font-size="8">Manual, inconsistent</text>
  <text x="392" y="582" fill="#d1d5db" font-size="8">req-to-team assignment</text>
  <line x1="392" y1="589" x2="530" y2="589" stroke="#1f2937" stroke-width="0.8"/>
  <text x="392" y="603" fill="#9ca3af" font-size="7.5" font-weight="bold">TARGET</text>
  <text x="392" y="617" fill="#fde68a" font-size="8.5" font-weight="bold">Auto-classify ownership</text>
  <text x="392" y="630" fill="#fde68a" font-size="8">with confidence score</text>
  <rect x="392" y="642" width="80" height="14" rx="3" fill="#78350f"/>
  <text x="432" y="652" text-anchor="middle" fill="#fbbf24" font-size="7.5" font-weight="bold">🔄 IN PROGRESS</text>

  <!-- CARD 4 · STEP 4 · Agentic Multi-domain Review (green) -->
  <rect x="548" y="478" width="160" height="188" rx="8" fill="#060f0a" stroke="#34d399" stroke-width="1.5"/>
  <rect x="548" y="478" width="160" height="30" rx="8" fill="#064e3b"/>
  <rect x="548" y="494" width="160" height="14" fill="#064e3b"/>
  <text x="570" y="489" fill="#a7f3d0" font-size="8" font-weight="bold">STEP 4</text>
  <text x="628" y="500" text-anchor="middle" fill="#a7f3d0" font-size="9" font-weight="bold">🛡️ AGENTIC REVIEW</text>
  <text x="562" y="524" fill="#9ca3af" font-size="7.5" font-weight="bold">STAGE</text>
  <text x="562" y="537" fill="#6ee7b7" font-size="8.5">Sys. Req. Review Gate</text>
  <line x1="562" y1="543" x2="700" y2="543" stroke="#1f2937" stroke-width="0.8"/>
  <text x="562" y="557" fill="#9ca3af" font-size="7.5" font-weight="bold">PROBLEM</text>
  <text x="562" y="570" fill="#d1d5db" font-size="8">Safety attrs. missed in</text>
  <text x="562" y="582" fill="#d1d5db" font-size="8">manual expert reviews</text>
  <line x1="562" y1="589" x2="700" y2="589" stroke="#1f2937" stroke-width="0.8"/>
  <text x="562" y="603" fill="#9ca3af" font-size="7.5" font-weight="bold">SAVING</text>
  <text x="562" y="617" fill="#86efac" font-size="8.5" font-weight="bold">&gt;90% recall vs expert</text>
  <text x="562" y="630" fill="#86efac" font-size="8">ISO 26262 · SOTIF  (POC)</text>
  <rect x="562" y="642" width="56" height="14" rx="3" fill="#134e3a"/>
  <text x="590" y="652" text-anchor="middle" fill="#86efac" font-size="7.5" font-weight="bold">🔬 POC BUILT</text>

  <!-- CARD 5 · STEP 5 · Digital Test Lab (blue) -->
  <rect x="818" y="478" width="160" height="188" rx="8" fill="#050d14" stroke="#38bdf8" stroke-width="1.5"/>
  <rect x="818" y="478" width="160" height="30" rx="8" fill="#0c4a6e"/>
  <rect x="818" y="494" width="160" height="14" fill="#0c4a6e"/>
  <text x="840" y="489" fill="#bae6fd" font-size="8" font-weight="bold">STEP 5</text>
  <text x="898" y="500" text-anchor="middle" fill="#bae6fd" font-size="9" font-weight="bold">📊 DIGITAL TEST LAB</text>
  <text x="832" y="524" fill="#9ca3af" font-size="7.5" font-weight="bold">STAGE</text>
  <text x="832" y="537" fill="#7dd3fc" font-size="8.5">Validation &amp; Testing</text>
  <line x1="832" y1="543" x2="970" y2="543" stroke="#1f2937" stroke-width="0.8"/>
  <text x="832" y="557" fill="#9ca3af" font-size="7.5" font-weight="bold">PROBLEM</text>
  <text x="832" y="570" fill="#d1d5db" font-size="8">Paper-based test lifecycle</text>
  <text x="832" y="582" fill="#d1d5db" font-size="8">request → report</text>
  <line x1="832" y1="589" x2="970" y2="589" stroke="#1f2937" stroke-width="0.8"/>
  <text x="832" y="603" fill="#9ca3af" font-size="7.5" font-weight="bold">SAVING</text>
  <text x="832" y="617" fill="#86efac" font-size="8.5" font-weight="bold">80% paper reduction</text>
  <text x="832" y="630" fill="#86efac" font-size="8">Real-time tracking</text>
  <rect x="832" y="642" width="44" height="14" rx="3" fill="#166534"/>
  <text x="854" y="652" text-anchor="middle" fill="#86efac" font-size="7.5" font-weight="bold">✅ LIVE</text>

  <!-- ═══════════════════════════════
       FOOTER
  ═══════════════════════════════ -->
  <line x1="40" y1="676" x2="1060" y2="676" stroke="#21262d" stroke-width="1"/>
  <circle cx="56" cy="689" r="4" fill="#238636"/>
  <text x="67" y="693" fill="#6e7681" font-size="8">Live &amp; Deployed</text>
  <circle cx="148" cy="689" r="4" fill="#d97706"/>
  <text x="159" y="693" fill="#6e7681" font-size="8">In Progress</text>
  <circle cx="236" cy="689" r="4" fill="#134e3a" stroke="#34d399" stroke-width="1"/>
  <text x="247" y="693" fill="#6e7681" font-size="8">POC Built</text>
  <text x="550" y="693" text-anchor="middle" fill="#484f58" font-size="8">🥇  ADAS Object Detection  ·  1st Prize  ·  Internal Innovation Competition  ·  Computer Vision &amp; Deep Learning</text>
  <text x="1058" y="693" text-anchor="end" fill="#484f58" font-size="8">github.com/Vignesh-Manivasakam</text>

</svg>